<svg xmlns="http://www.w3.org/2000/svg" xmlns:xlink="http://www.w3.org/1999/xlink" version="1.1" id="Layer_1" x="0px" y="0px" width="100%" viewBox="0 0 308 250" enable-background="new 0 0 308 250" xml:space="preserve">
<path fill="#CDD7D6" opacity="1.000000" stroke="none" d=" M164.000000,251.000000   C109.333344,251.000000 55.166679,251.000000 1.000015,251.000000   C1.000010,167.666687 1.000010,84.333366 1.000005,1.000037   C103.666634,1.000025 206.333267,1.000025 308.999939,1.000012   C308.999939,84.333290 308.999939,167.666580 308.999969,250.999939   C260.833344,251.000000 212.666672,251.000000 164.000000,251.000000  M137.039444,129.129898   C134.693176,132.419357 132.346893,135.708832 129.316696,139.157440   C124.133835,141.762497 118.950974,144.367554 113.115547,147.208832   C111.309433,148.039795 109.560181,149.038361 107.687645,149.673508   C98.135956,152.913391 93.349510,159.896057 91.873863,169.528671   C90.572464,178.023880 89.174713,186.507004 88.052254,195.026138   C87.025711,202.817322 86.310860,210.649551 85.402992,218.974014   C94.170113,218.974014 102.278320,219.045166 110.382217,218.890091   C111.479668,218.869095 112.555405,217.713242 113.847473,216.946487   C113.847473,216.946487 114.092941,216.976379 113.989601,217.476440   C114.039139,217.639282 114.088684,217.802124 114.488998,218.745132   C127.955147,218.741028 141.421295,218.736923 155.824768,218.904510   C167.533661,218.930740 179.242706,218.989075 190.951279,218.939560   C192.301514,218.933853 193.649216,218.327988 195.147858,217.515762   C195.121323,217.348785 195.094772,217.181793 195.383331,216.845200   C195.383331,216.845200 195.724350,216.736740 196.116425,217.492615   C197.581131,217.993027 199.031647,218.868820 200.513153,218.924835   C205.339233,219.107300 210.176651,218.988617 215.009705,218.988892   C223.622894,218.989380 223.885605,218.961197 222.946960,210.489243   C221.503052,197.456848 219.855713,184.439301 217.917084,171.471909   C216.403976,161.350784 211.998093,153.117599 201.391068,149.686508   C199.347794,149.025558 197.456314,147.895309 194.794128,146.807495   C194.563217,146.739685 194.332321,146.671875 193.605103,146.157394   C188.747192,143.780457 183.889297,141.403503 178.877228,138.339844   C176.145584,135.200882 176.066910,129.664520 170.251541,128.210220   C170.170303,125.791084 170.089066,123.371956 170.352081,120.386375   C177.082840,113.187531 181.627945,104.803780 184.647766,94.925743   C190.053513,84.165077 193.156860,72.898521 192.084473,60.734226   C191.175903,50.428120 186.734467,42.150681 177.438858,37.213173   C172.468903,34.573299 167.190109,32.322632 161.809662,30.691225   C152.935211,28.000404 142.463287,26.602617 136.166489,33.383141   C129.362000,40.710358 121.517471,48.286854 118.812706,58.807213   C118.400940,60.408794 118.133835,62.083557 118.075462,63.734222   C117.662407,75.415741 120.205345,86.500381 125.053925,97.845940   C127.584473,106.337845 131.597717,113.948181 138.120804,120.905685   C137.992172,123.653320 137.863556,126.400955 137.039444,129.129898  z"/>
<path fill="#3D7493" opacity="1.000000" stroke="none" d=" M194.998093,218.000381   C193.649216,218.327988 192.301514,218.933853 190.951279,218.939560   C179.242706,218.989075 167.533661,218.930740 155.361588,218.367859   C154.618317,194.450912 154.352493,171.070450 154.018234,147.690933   C154.000534,146.452347 153.404144,145.222015 153.170105,143.684174   C153.851532,143.220306 154.440002,143.060120 155.176422,143.204834   C159.223343,148.396744 163.122330,153.283722 167.401779,158.647583   C171.489929,151.750229 175.260651,145.388397 179.031387,139.026566   C183.889297,141.403503 188.747192,143.780457 193.828888,146.823425   C194.437897,149.360641 194.823120,151.231827 195.334778,153.551025   C195.548920,174.911621 195.636642,195.824173 195.724365,216.736740   C195.724350,216.736740 195.383331,216.845200 195.084793,217.021652   C194.569565,217.510803 194.640182,217.778229 194.998093,218.000381  z"/>
<path fill="#284B5E" opacity="1.000000" stroke="none" d=" M153.077118,143.987839   C153.404144,145.222015 154.000534,146.452347 154.018234,147.690933   C154.352493,171.070450 154.618317,194.450912 154.892914,218.282013   C141.421295,218.736923 127.955147,218.741028 114.429176,218.246826   C114.516212,217.429733 114.424072,217.172348 114.092941,216.976379   C114.092941,216.976379 113.847473,216.946487 113.797195,216.543320   C113.833755,195.092896 113.920593,174.045654 114.198540,152.836853   C114.265358,152.118240 114.141083,151.561172 113.902161,150.769714   C113.735954,150.369186 113.684387,150.203049 113.720535,149.769241   C113.748039,149.323700 113.687828,149.145844 113.684784,148.638641   C113.750671,147.863739 113.759392,147.418182 113.768112,146.972610   C118.950974,144.367554 124.133835,141.762497 129.880234,139.340912   C134.132538,145.738693 137.821289,151.953003 141.756714,158.582825   C145.783432,153.391327 149.430283,148.689575 153.077118,143.987839  z"/>
<path fill="#2B3141" opacity="1.000000" stroke="none" d=" M124.987152,97.114136   C120.205345,86.500381 117.662407,75.415741 118.075462,63.734222   C118.133835,62.083557 118.400940,60.408794 118.812706,58.807213   C121.517471,48.286854 129.362000,40.710358 136.166489,33.383141   C142.463287,26.602617 152.935211,28.000404 161.809662,30.691225   C167.190109,32.322632 172.468903,34.573299 177.438858,37.213173   C186.734467,42.150681 191.175903,50.428120 192.084473,60.734226   C193.156860,72.898521 190.053513,84.165077 184.016693,94.838989   C184.574249,83.379562 185.493484,72.046028 178.741898,61.057560   C171.801117,68.732903 162.846603,71.319969 153.656448,74.127945   C152.407394,74.036644 151.513580,73.963570 150.330399,73.866829   C152.018005,72.455360 153.391327,71.306755 154.764633,70.158142   C154.582840,69.896088 154.401031,69.634033 154.219238,69.371971   C148.126373,71.817619 142.033508,74.263260 135.940628,76.708908   C135.766510,76.345596 135.592377,75.982285 135.418259,75.618980   C136.567032,73.973312 137.715805,72.327652 139.381348,69.941666   C131.153061,71.390144 127.604294,76.348022 126.228142,82.816147   C125.240135,87.459946 125.360977,92.339668 124.987152,97.114136  z"/>
<path fill="#FEFEFB" opacity="1.000000" stroke="none" d=" M195.920395,217.114685   C195.636642,195.824173 195.548920,174.911621 195.447479,153.232819   C195.454086,150.638245 195.474457,148.809891 195.494812,146.981552   C197.456314,147.895309 199.347794,149.025558 201.391068,149.686508   C211.998093,153.117599 216.403976,161.350784 217.917084,171.471909   C219.855713,184.439301 221.503052,197.456848 222.946960,210.489243   C223.885605,218.961197 223.622894,218.989380 215.009705,218.988892   C210.176651,218.988617 205.339233,219.107300 200.513153,218.924835   C199.031647,218.868820 197.581131,217.993027 195.920395,217.114685  z"/>
<path fill="#FEFEFA" opacity="1.000000" stroke="none" d=" M114.007431,152.998398   C113.920593,174.045654 113.833755,195.092896 113.694061,216.611511   C112.555405,217.713242 111.479668,218.869095 110.382217,218.890091   C102.278320,219.045166 94.170113,218.974014 85.402992,218.974014   C86.310860,210.649551 87.025711,202.817322 88.052254,195.026138   C89.174713,186.507004 90.572464,178.023880 91.873863,169.528671   C93.349510,159.896057 98.135956,152.913391 107.687645,149.673508   C109.560181,149.038361 111.309433,148.039795 113.441833,147.090729   C113.759392,147.418182 113.750671,147.863739 113.529556,148.733414   C113.422379,149.450653 113.527596,149.743774 113.632812,150.036911   C113.684387,150.203049 113.735954,150.369186 113.811333,151.097595   C113.892578,152.106049 113.950005,152.552216 114.007431,152.998398  z"/>
<path fill="#F1C48B" opacity="1.000000" stroke="none" d=" M154.011688,74.146164   C162.846603,71.319969 171.801117,68.732903 178.741898,61.057560   C185.493484,72.046028 184.574249,83.379562 183.686462,94.993652   C181.627945,104.803780 177.082840,113.187531 169.818329,120.730461   C164.213150,122.696243 159.141739,124.317940 154.051468,125.475143   C154.025635,108.055824 154.018661,91.100990 154.011688,74.146164  z"/>
<path fill="#D8A169" opacity="1.000000" stroke="none" d=" M153.656448,74.127945   C154.018661,91.100990 154.025635,108.055824 154.011566,125.508400   C153.990509,126.006149 153.911438,126.070969 153.519897,126.045242   C148.161453,124.013908 143.194550,122.008316 138.227646,120.002724   C131.597717,113.948181 127.584473,106.337845 125.020538,97.480042   C125.360977,92.339668 125.240135,87.459946 126.228142,82.816147   C127.604294,76.348022 131.153061,71.390144 139.381348,69.941666   C137.715805,72.327652 136.567032,73.973312 135.418259,75.618980   C135.592377,75.982285 135.766510,76.345596 135.940628,76.708908   C142.033508,74.263260 148.126373,71.817619 154.219238,69.371971   C154.401031,69.634033 154.582840,69.896088 154.764633,70.158142   C153.391327,71.306755 152.018005,72.455360 150.330399,73.866829   C151.513580,73.963570 152.407394,74.036644 153.656448,74.127945  z"/>
<path fill="#F9FBF8" opacity="1.000000" stroke="none" d=" M178.954315,138.683197   C175.260651,145.388397 171.489929,151.750229 167.401779,158.647583   C163.122330,153.283722 159.223343,148.396744 155.170670,142.957382   C155.010925,142.074966 155.005798,141.744919 155.325531,141.260284   C160.602661,137.096985 165.555832,133.088257 170.509018,129.079529   C176.066910,129.664520 176.145584,135.200882 178.954315,138.683197  z"/>
<path fill="#F9FAF7" opacity="1.000000" stroke="none" d=" M155.001587,141.414856   C155.005798,141.744919 155.010925,142.074966 155.022705,142.652466   C154.440002,143.060120 153.851532,143.220306 153.170105,143.684174   C149.430283,148.689575 145.783432,153.391327 141.756714,158.582825   C137.821289,151.953003 134.132538,145.738693 130.222198,139.261337   C132.346893,135.708832 134.693176,132.419357 137.528168,129.446655   C143.348236,133.491058 148.679550,137.218704 154.256653,141.067474   C154.668823,141.264023 154.835205,141.339432 155.001587,141.414856  z"/>
<path fill="#E2A168" opacity="1.000000" stroke="none" d=" M155.325531,141.260284   C154.835205,141.339432 154.668823,141.264023 154.263840,140.605331   C153.987305,135.371704 153.949371,130.721329 153.911438,126.070969   C153.911438,126.070969 153.990509,126.006149 154.030411,125.972893   C159.141739,124.317940 164.213150,122.696243 169.646210,121.013687   C170.089066,123.371956 170.170303,125.791084 170.380280,128.644867   C165.555832,133.088257 160.602661,137.096985 155.325531,141.260284  z"/>
<path fill="#C48C5A" opacity="1.000000" stroke="none" d=" M153.519897,126.045242   C153.949371,130.721329 153.987305,135.371704 154.018066,140.484207   C148.679550,137.218704 143.348236,133.491058 137.875916,129.455994   C137.863556,126.400955 137.992172,123.653320 138.174225,120.454208   C143.194550,122.008316 148.161453,124.013908 153.519897,126.045242  z"/>
<path fill="#2E698A" opacity="1.000000" stroke="none" d=" M195.144470,146.894531   C195.474457,148.809891 195.454086,150.638245 195.321045,152.784790   C194.823120,151.231827 194.437897,149.360641 194.077026,147.046753   C194.332321,146.671875 194.563217,146.739685 195.144470,146.894531  z"/>
<path fill="#1A3E55" opacity="1.000000" stroke="none" d=" M114.041275,217.226410   C114.424072,217.172348 114.516212,217.429733 114.253784,217.856735   C114.088684,217.802124 114.039139,217.639282 114.041275,217.226410  z"/>
<path fill="#2E698A" opacity="1.000000" stroke="none" d=" M195.072968,217.758072   C194.640182,217.778229 194.569565,217.510803 194.927246,217.106445   C195.094772,217.181793 195.121323,217.348785 195.072968,217.758072  z"/>
<path fill="#1A3E55" opacity="1.000000" stroke="none" d=" M114.198532,152.836853   C113.950005,152.552216 113.892578,152.106049 113.925980,151.331985   C114.141083,151.561172 114.265358,152.118240 114.198532,152.836853  z"/>
<path fill="#CDD7D6" opacity="1.000000" stroke="none" d=" M113.720535,149.769241   C113.527596,149.743774 113.422379,149.450653 113.472382,149.062744   C113.687828,149.145844 113.748039,149.323700 113.720535,149.769241  z"/>
</svg>